Dip1990


    The Wild [2006] [Dual-Audio] [English+Hindi]_Dip1990


TiTLE......[ The Wild                                                 
YEAR.......[ 2006                                                     
GENRE......[ Animation / Adventure / Comedy / Family                  
RUNTiME....[ 01:21:39                                                 
iMDB RATE..[ 5.7/10 (3,932 votes)                                    
DVDRELDATE.[ September 12, 2006                                       
iMDB URL...[ http://www.imdb.com/title/tt0405469/
SOURCE.....[ NTSC DVD
COUNTRY: USA                                                   
DIRECTOR: Steve \'Spaz\' Williams                                
SCREENWRITER: Ed Decter, Mark Gibson,                          
Philip Halprin, John J. Strauss                                 
COMPOSER: Alan Silvestri                                        
CAST: Animation                                                 
STUDIO/PRODUCER: Walt Disney Pictures                            

A teenage lion living in the New York Zoo                       
accidentally gets trapped inside a crate and                    
shipped to Africa. A group of his zoo buddies,                   
including another lion, a giraffe, a snake and                 
a koala team up to save him.     
   
General
      Complete name : The Wild [2006] [Dual-Audio] [English+Hindi]_Dip1990.mkv
      Format : Matroska
      File size : 751 MiB
      Duration : 1h 21mn
      Overall bit rate : 1 287 Kbps
      Encoded date : UTC 2010-05-25 15:17:48
      Writing application : mkvmerge v3.4.0 (\'Rapunzel\') built on May 15 2010 09:38:20
      Writing library : libebml v0.8.0 + libmatroska v0.9.0
   
Video #1
      ID : 1
      Format : MPEG-4 Visual
      Format profile : AdvancedSimple@L5
      Format settings, BVOP : Yes
      Format settings, QPel : No
      Format settings, GMC : No warppoints
      Format settings, Matrix : Default (H.263)
      Codec ID : DX50
      Codec ID/Hint : DivX 5
      Duration : 1h 21mn
      Bit rate : 973 Kbps
      Width : 556 pixels
      Height : 306 pixels
      Display aspect ratio : 16:9
      Frame rate : 23.976 fps
      Resolution : 24 bits
      Colorimetry : 4:2:0
      Scan type : Progressive
      Bits/(Pixel*Frame) : 0.239
      Stream size : 568 MiB (76%)
      Title : The Wild
      Writing library : XviD 1.0.3 (UTC 2004-12-20)
      Language : English
  
 Audio #2
      ID : 2
      Format : MPEG Audio
      Format version : Version 1
      Format profile : Layer 3
      Codec ID : A_MPEG/L3
      Codec ID/Hint : MP3
      Duration : 1h 21mn
      Bit rate mode : Constant
      Bit rate : 160 Kbps
      Channel(s) : 2 channels
      Sampling rate : 48.0 KHz
      Resolution : 16 bits
      Stream size : 93.4 MiB (12%)
      Title : The Wild - Hindi
      Language : Hindi
   
Audio #3
      ID : 3
      Format : MPEG Audio
      Format version : Version 1
      Format profile : Layer 3
      Codec ID : A_MPEG/L3
      Codec ID/Hint : MP3
      Duration : 1h 21mn
      Bit rate mode : Constant
      Bit rate : 128 Kbps
      Channel(s) : 1 channel
      Sampling rate : 48.0 KHz
      Resolution : 16 bits
      Stream size : 74.8 MiB (10%)
      Title : The Wild - English
      Language : English

Screens:

[img]http://a.imageshack.us/img690/9536/thewild2006dualaudioeng.jpg[/img]
[img]http://a.imageshack.us/img691/9536/thewild2006dualaudioeng.jpg[/img]
[img]http://a.imageshack.us/img265/9536/thewild2006dualaudioeng.jpg[/img]
[img]http://a.imageshack.us/img441/9536/thewild2006dualaudioeng.jpg[/img]
[img]http://a.imageshack.us/img266/9536/thewild2006dualaudioeng.jpg[/img]
[img]http://a.imageshack.us/img96/9536/thewild2006dualaudioeng.jpg[/img]
[img]http://a.imageshack.us/img841/9536/thewild2006dualaudioeng.jpg[/img]
[img]http://a.imageshack.us/img827/9536/thewild2006dualaudioeng.jpg[/img]
[img]http://a.imageshack.us/img571/9536/thewild2006dualaudioeng.jpg[/img]
[img]http://a.imageshack.us/img841/4471/thewild2006dualaudioengt.jpg[/img]